<?xml version="1.0" encoding="UTF-8" standalone="no"?>
<!-- Created with Inkscape (http://www.inkscape.org/) -->
<svg
   xmlns:svg="http://www.w3.org/2000/svg"
   xmlns="http://www.w3.org/2000/svg"
   version="1.0"
   width="114"
   height="270"
   id="svg4171">
  <defs
     id="defs4173" />
  <g
     transform="matrix(1.1036964,0,0,1.1036964,-24.108519,-9.3654261)"
     id="g2542">
    <g
       transform="translate(-492.15907,-339.97333)"
       id="g5011"
       style="display:inline">
      <path
         d="M 564.95528,371.69983 C 564.95528,371.69983 569.37554,373.38894 578.32293,379.17843 C 587.27033,384.96792 594.8542,391.69895 594.95669,391.75226 C 596.74673,389.77808 597.74896,388.57957 599.23685,386.27012 C 603.63658,379.44104 578.27583,365.84943 577.9458,365.85596 L 564.95528,371.69983 z"
         id="path5000"
         style="fill:#b89b5c;fill-opacity:1;fill-rule:nonzero;stroke:#000000;stroke-width:1.5;stroke-linecap:round;stroke-linejoin:miter;stroke-miterlimit:4;stroke-dashoffset:0;stroke-opacity:1" />
      <path
         d="M 591.43118,382.60458 L 591.5411,382.60458 C 593.77621,379.56336 591.72431,378.44165 590.01196,377.35994 L 564.33642,376.3913 C 566.2643,377.72195 564.33907,376.2193 564.33907,376.2193 C 566.2643,377.85728 567.36541,377.59571 564.99921,381.39546 L 565.14712,381.42405 L 591.47221,382.56243"
         id="path4703"
         style="fill:#7df6a7;fill-opacity:1;fill-rule:evenodd;stroke:#000000;stroke-width:1.5;stroke-linecap:round;stroke-linejoin:miter;stroke-miterlimit:4;stroke-dashoffset:0;stroke-opacity:1;display:inline" />
      <path
         d="M 562.5588,466.87273 C 562.5588,466.87273 552.83691,464.12516 544.83948,458.62693 C 536.84206,453.1287 531.07418,445.38489 530.9016,445.23875 C 530.57376,445.41405 528.15277,451.02399 527.52261,453.60444 C 525.42055,462.21216 546.50824,473.65073 546.54533,473.83903 L 562.61859,467.06376"
         id="path4584"
         style="fill:#b89b5c;fill-opacity:1;fill-rule:evenodd;stroke:#000000;stroke-width:1.5;stroke-linecap:round;stroke-linejoin:miter;stroke-miterlimit:4;stroke-dashoffset:0;stroke-opacity:1" />
      <path
         d="M 578.45958,402.55271 L 567.99307,407.58625 L 568.04407,407.54821 L 561.36181,407.51018 L 561.33232,407.48295 C 558.20035,404.40204 561.20482,403.94118 562.31254,402.40872 C 562.31254,402.40872 561.20482,403.94118 562.34358,402.37976 L 578.45958,402.55271 z"
         id="path4715"
         style="fill:#d67df6;fill-opacity:1;fill-rule:evenodd;stroke:#000000;stroke-width:1.5;stroke-linecap:round;stroke-linejoin:miter;stroke-miterlimit:4;stroke-dashoffset:0;stroke-opacity:1;display:inline" />
      <path
         d="M 590.588,395.08601 L 595.94823,390.55841 L 564.13533,389.94278 L 564.20374,389.95244 L 564.20372,394.38214 L 564.20371,394.36261 L 590.588,395.08601 z"
         id="path4707"
         style="fill:#f67da2;fill-opacity:1;fill-rule:evenodd;stroke:#000000;stroke-width:1.5;stroke-linecap:round;stroke-linejoin:round;stroke-miterlimit:4;stroke-dashoffset:0;stroke-opacity:1;display:inline" />
      <path
         d="M 562.27712,409.91232 C 562.27712,409.91232 552.55523,407.16475 544.5578,401.66652 C 536.56038,396.16829 530.7925,388.42448 530.61992,388.27834 C 530.29208,388.45364 527.87109,394.06358 527.24093,396.64403 C 525.13887,405.25175 546.22656,416.69032 546.26365,416.87862 L 562.33691,410.10335"
         id="path4948"
         style="fill:#b89b5c;fill-opacity:1;fill-rule:evenodd;stroke:#000000;stroke-width:1.5;stroke-linecap:round;stroke-linejoin:miter;stroke-miterlimit:4;stroke-dashoffset:0;stroke-opacity:1" />
      <path
         d="M 552.06551,357.82051 C 543.35004,359.69734 527.51747,371.10604 524.92084,378.48165 C 522.6891,387.08488 523.09552,393.70948 525.48057,399.67454 C 538.099,413.76911 539.31123,412.16873 546.22656,416.83536 C 546.22656,416.69032 524.79217,406.13563 527.24093,396.64403 C 530.49406,384.03461 540.93883,375.03174 555.73047,369.77131 L 552.06551,357.82051 z"
         id="path5002"
         style="fill:#f6d07d;fill-opacity:1;fill-rule:nonzero;stroke:#000000;stroke-width:1.5;stroke-linecap:round;stroke-linejoin:miter;stroke-miterlimit:4;stroke-dashoffset:0;stroke-opacity:1;display:inline" />
      <path
         d="M 578.04021,365.84943 C 578.04021,365.84943 603.34568,379.26216 599.23685,386.27012 C 587.22261,406.76144 533.45418,415.34262 525.20252,435.44206 C 522.97078,444.04529 523.3772,450.66989 525.76225,456.63495 C 538.38068,470.72952 539.59291,469.12914 546.50824,473.79577 C 546.50824,473.65073 525.0995,463.10262 527.52261,453.60444 C 535.48827,422.38053 571.61632,430.10714 602.66618,400.34156 C 604.80238,396.94435 605.17982,391.34868 603.13893,383.55453 C 603.23733,379.38602 588.3111,372.9489 578.04021,365.84943 z"
         id="path2898"
         style="fill:#f6d07d;fill-opacity:1;fill-rule:nonzero;stroke:#000000;stroke-width:1.5;stroke-linecap:round;stroke-linejoin:miter;stroke-miterlimit:4;stroke-dashoffset:0;stroke-opacity:1;display:inline" />
      <path
         d="M 564.99921,381.39546 C 567.51332,377.62429 566.2643,377.99261 564.33907,376.35463 C 564.33907,376.35463 566.2643,377.99261 564.33642,376.3913 L 545.02223,374.86035 C 544.98666,374.70061 543.50146,375.69476 541.64065,376.98041 C 539.77983,378.26607 537.54341,379.84322 537.67447,380.04247 L 564.99921,381.39546 z"
         id="path2902"
         style="fill:#d67df6;fill-opacity:1;fill-rule:evenodd;stroke:#000000;stroke-width:1.5;stroke-linecap:round;stroke-linejoin:miter;stroke-miterlimit:4;stroke-dashoffset:0;stroke-opacity:1;display:inline" />
      <path
         d="M 564.13533,389.94278 L 564.20372,394.38214 L 528.25948,393.88808 L 530.317,389.14014 L 564.13533,389.94278 z"
         id="path2910"
         style="fill:#7d88f6;fill-opacity:1;fill-rule:evenodd;stroke:#000000;stroke-width:1.5;stroke-linecap:round;stroke-linejoin:miter;stroke-miterlimit:4;stroke-dashoffset:0;stroke-opacity:1;display:inline" />
      <path
         d="M 561.33232,407.36514 C 558.22984,404.42927 561.79389,403.94118 562.54817,402.40872 C 562.54817,402.40872 561.79389,403.94118 562.57921,402.37976 L 536.05133,402.30934 C 535.04883,403.86122 536.03767,402.33011 536.03767,402.33011 C 535.04883,403.86122 534.63416,405.6794 536.86924,407.50388 L 536.93526,407.51018 L 561.33232,407.36514 z"
         id="path2914"
         style="fill:#7df6a7;fill-opacity:1;fill-rule:evenodd;stroke:#000000;stroke-width:1.5;stroke-linecap:round;stroke-linejoin:miter;stroke-miterlimit:4;stroke-dashoffset:0;stroke-opacity:1;display:inline" />
    </g>
    <g
       transform="translate(-507.1312,-325.30702)"
       id="g4954"
       style="display:inline">
      <path
         d="M 576.6524,409.96797 C 576.6524,409.96797 586.96332,414.72022 595.91071,420.50971 C 604.85811,426.2992 612.44198,433.03023 612.54447,433.08354 C 614.33451,431.10936 615.33674,429.91085 616.82463,427.6014 C 621.22436,420.77232 590.91546,404.11757 591.05668,404.1241 L 576.6524,409.96797 z"
         id="path4956"
         style="fill:#b89b5c;fill-opacity:1;fill-rule:nonzero;stroke:#000000;stroke-width:1.5;stroke-linecap:round;stroke-linejoin:miter;stroke-miterlimit:4;stroke-dashoffset:0;stroke-opacity:1" />
      <path
         d="M 590.91546,404.11757 C 590.91546,404.11757 620.93346,420.59344 616.82463,427.6014 C 604.81039,448.09272 551.04196,456.6739 542.7903,476.77334 C 540.55856,485.37657 540.96498,492.00117 543.35003,497.96623 C 555.96846,512.0608 557.18069,510.46042 564.09602,515.12705 C 564.09602,514.98201 542.68728,504.4339 545.11039,494.93572 C 553.07605,463.71181 589.2041,471.43842 620.25396,441.67284 C 622.39016,438.27563 622.7676,432.67996 620.72671,424.88581 C 620.82511,420.7173 601.18635,411.21704 590.91546,404.11757 z"
         id="path4958"
         style="fill:#f6d07d;fill-opacity:1;fill-rule:nonzero;stroke:#000000;stroke-width:1.5;stroke-linecap:round;stroke-linejoin:miter;stroke-miterlimit:4;stroke-dashoffset:0;stroke-opacity:1;display:inline" />
      <path
         d="M 582.58699,422.72674 C 585.1011,418.95557 583.85208,419.32389 581.92685,417.68591 C 581.92685,417.68591 583.85208,419.32389 581.9242,417.72258 L 562.61001,416.19163 C 562.57444,416.03189 561.08924,417.02604 559.22843,418.31169 C 557.36761,419.59735 555.13119,421.1745 555.26225,421.37375 L 582.58699,422.72674 z"
         id="path4960"
         style="fill:#d67df6;fill-opacity:1;fill-rule:evenodd;stroke:#000000;stroke-width:1.5;stroke-linecap:round;stroke-linejoin:miter;stroke-miterlimit:4;stroke-dashoffset:0;stroke-opacity:1;display:inline" />
      <path
         d="M 578.9201,448.69642 C 575.81762,445.76055 579.38167,445.27246 580.13595,443.74 C 580.13595,443.74 579.38167,445.27246 580.16699,443.71104 L 553.63911,443.64062 C 552.63661,445.1925 553.62545,443.66139 553.62545,443.66139 C 552.63661,445.1925 552.22194,447.01068 554.45702,448.83516 L 554.52304,448.84146 L 578.9201,448.69642 z"
         id="path4962"
         style="fill:#7df6a7;fill-opacity:1;fill-rule:evenodd;stroke:#000000;stroke-width:1.5;stroke-linecap:round;stroke-linejoin:miter;stroke-miterlimit:4;stroke-dashoffset:0;stroke-opacity:1;display:inline" />
      <path
         d="M 581.72311,431.27406 L 581.7915,435.71342 L 545.84726,435.21936 L 547.90478,430.47142 L 581.72311,431.27406 z"
         id="path4964"
         style="fill:#7d88f6;fill-opacity:1;fill-rule:evenodd;stroke:#000000;stroke-width:1.5;stroke-linecap:round;stroke-linejoin:miter;stroke-miterlimit:4;stroke-dashoffset:0;stroke-opacity:1;display:inline" />
      <path
         d="M 609.01896,423.93586 L 609.12888,423.93586 C 611.36399,420.89464 609.31209,419.77293 607.59974,418.69122 L 581.9242,417.72258 C 583.85208,419.05323 581.92685,417.55058 581.92685,417.55058 C 583.85208,419.18856 584.95319,418.92699 582.58699,422.72674 L 582.7349,422.75533 L 609.05999,423.89371"
         id="path4966"
         style="fill:#7df6a7;fill-opacity:1;fill-rule:evenodd;stroke:#000000;stroke-width:1.5;stroke-linecap:round;stroke-linejoin:miter;stroke-miterlimit:4;stroke-dashoffset:0;stroke-opacity:1;display:inline" />
      <path
         d="M 589.32853,411.69936 C 590.76947,410.07458 590.24247,407.58423 588.6326,406.34808 C 588.6326,406.34808 590.24247,407.58423 588.40305,406.27315 L 586.5052,406.03482 L 586.51897,405.9991 L 574.82895,410.78488 L 574.83824,410.83965 L 589.32853,411.69936 z"
         id="path4968"
         style="fill:#7d88f6;fill-opacity:1;fill-rule:nonzero;stroke:#000000;stroke-width:1.5;stroke-linecap:round;stroke-linejoin:miter;stroke-miterlimit:4;stroke-dashoffset:0;stroke-opacity:1" />
      <path
         d="M 580.14658,508.20401 C 580.14658,508.20401 570.42469,505.45644 562.42726,499.95821 C 554.42984,494.45998 548.66196,486.71617 548.48938,486.57003 C 548.16154,486.74533 545.74055,492.35527 545.11039,494.93572 C 543.00833,503.54344 564.09602,514.98201 564.13311,515.17031 L 580.20637,508.39504"
         id="path4970"
         style="fill:#b89b5c;fill-opacity:1;fill-rule:evenodd;stroke:#000000;stroke-width:1.5;stroke-linecap:round;stroke-linejoin:miter;stroke-miterlimit:4;stroke-dashoffset:0;stroke-opacity:1" />
      <path
         d="M 596.04736,443.88399 L 585.58085,448.91753 L 585.63185,448.87949 L 578.94959,448.84146 L 578.9201,448.81423 C 575.78813,445.73332 578.7926,445.27246 579.90032,443.74 C 579.90032,443.74 578.7926,445.27246 579.93136,443.71104 L 596.04736,443.88399 z"
         id="path4972"
         style="fill:#d67df6;fill-opacity:1;fill-rule:evenodd;stroke:#000000;stroke-width:1.5;stroke-linecap:round;stroke-linejoin:miter;stroke-miterlimit:4;stroke-dashoffset:0;stroke-opacity:1;display:inline" />
      <path
         d="M 608.17578,436.41729 L 613.53601,431.88969 L 581.72311,431.27406 L 581.79152,431.28372 L 581.7915,435.71342 L 581.79149,435.69389 L 608.17578,436.41729 z"
         id="path4974"
         style="fill:#f67da2;fill-opacity:1;fill-rule:evenodd;stroke:#000000;stroke-width:1.5;stroke-linecap:round;stroke-linejoin:round;stroke-miterlimit:4;stroke-dashoffset:0;stroke-opacity:1;display:inline" />
    </g>
    <path
       d="M 69.79743,141.12381 C 69.79743,141.12381 80.10835,145.87606 89.05574,151.66555 C 98.00314,157.45504 105.58701,164.18607 105.6895,164.23938 C 107.47954,162.2652 108.48177,161.06669 109.96966,158.75724 C 114.36939,151.92816 84.06049,135.27341 84.20171,135.27994 L 69.79743,141.12381 z"
       id="path4781"
       style="fill:#b89b5c;fill-opacity:1;fill-rule:nonzero;stroke:#000000;stroke-width:1.5;stroke-linecap:round;stroke-linejoin:miter;stroke-miterlimit:4;stroke-dashoffset:0;stroke-opacity:1" />
    <path
       d="M 84.06049,135.27341 C 84.06049,135.27341 114.07849,151.74928 109.96966,158.75724 C 97.95542,179.24856 44.18699,187.82974 35.93533,207.92918 C 33.70359,216.53241 34.11001,223.15701 36.49506,229.12207 C 49.11349,243.21664 41.97153,237.21932 48.88686,241.88595 C 48.88686,241.74091 35.83231,235.58974 38.25542,226.09156 C 46.22108,194.86765 82.34913,202.59426 113.39899,172.82868 C 115.53519,169.43147 115.91263,163.8358 113.87174,156.04165 C 113.97014,151.87314 94.33138,142.37288 84.06049,135.27341 z"
       id="path4783"
       style="fill:#f6d07d;fill-opacity:1;fill-rule:nonzero;stroke:#000000;stroke-width:1.5;stroke-linecap:round;stroke-linejoin:miter;stroke-miterlimit:4;stroke-dashoffset:0;stroke-opacity:1;display:inline" />
    <path
       d="M 75.73202,153.88258 C 78.24613,150.11141 76.99711,150.47973 75.07188,148.84175 C 75.07188,148.84175 76.99711,150.47973 75.06923,148.87842 L 55.75504,147.34747 C 55.71947,147.18773 54.23427,148.18188 52.37346,149.46753 C 50.51264,150.75319 48.27622,152.33034 48.40728,152.52959 L 75.73202,153.88258 z"
       id="path4785"
       style="fill:#d67df6;fill-opacity:1;fill-rule:evenodd;stroke:#000000;stroke-width:1.5;stroke-linecap:round;stroke-linejoin:miter;stroke-miterlimit:4;stroke-dashoffset:0;stroke-opacity:1;display:inline" />
    <path
       d="M 72.06513,179.85226 C 68.96265,176.91639 72.5267,176.4283 73.28098,174.89584 C 73.28098,174.89584 72.5267,176.4283 73.31202,174.86688 L 46.78414,174.79646 C 45.78164,176.34834 46.77048,174.81723 46.77048,174.81723 C 45.78164,176.34834 45.36697,178.16652 47.60205,179.991 L 47.66807,179.9973 L 72.06513,179.85226 z"
       id="path4787"
       style="fill:#7df6a7;fill-opacity:1;fill-rule:evenodd;stroke:#000000;stroke-width:1.5;stroke-linecap:round;stroke-linejoin:miter;stroke-miterlimit:4;stroke-dashoffset:0;stroke-opacity:1;display:inline" />
    <path
       d="M 74.86814,162.4299 L 74.93653,166.86926 L 38.99229,166.3752 L 41.04981,161.62726 L 74.86814,162.4299 z"
       id="path4789"
       style="fill:#7d88f6;fill-opacity:1;fill-rule:evenodd;stroke:#000000;stroke-width:1.5;stroke-linecap:round;stroke-linejoin:miter;stroke-miterlimit:4;stroke-dashoffset:0;stroke-opacity:1;display:inline" />
    <path
       d="M 102.16399,155.0917 L 102.27391,155.0917 C 104.50902,152.05048 102.45712,150.92877 100.74477,149.84706 L 75.06923,148.87842 C 76.99711,150.20907 75.07188,148.70642 75.07188,148.70642 C 76.99711,150.3444 78.09822,150.08283 75.73202,153.88258 L 75.87993,153.91117 L 102.20502,155.04955"
       id="path4791"
       style="fill:#7df6a7;fill-opacity:1;fill-rule:evenodd;stroke:#000000;stroke-width:1.5;stroke-linecap:round;stroke-linejoin:miter;stroke-miterlimit:4;stroke-dashoffset:0;stroke-opacity:1;display:inline" />
    <path
       d="M 82.47356,142.8552 C 83.9145,141.23042 83.3875,138.74007 81.77763,137.50392 C 81.77763,137.50392 83.3875,138.74007 81.54808,137.42899 L 79.65023,137.19066 L 79.664,137.15494 L 67.97398,141.94072 L 67.98327,141.99549 L 82.47356,142.8552 z"
       id="path4793"
       style="fill:#7d88f6;fill-opacity:1;fill-rule:nonzero;stroke:#000000;stroke-width:1.5;stroke-linecap:round;stroke-linejoin:miter;stroke-miterlimit:4;stroke-dashoffset:0;stroke-opacity:1" />
    <path
       d="M 89.19239,175.03983 L 78.72588,180.07337 L 78.77688,180.03533 L 72.09462,179.9973 L 72.06513,179.97007 C 68.93316,176.88916 71.93763,176.4283 73.04535,174.89584 C 73.04535,174.89584 71.93763,176.4283 73.07639,174.86688 L 89.19239,175.03983 z"
       id="path4797"
       style="fill:#d67df6;fill-opacity:1;fill-rule:evenodd;stroke:#000000;stroke-width:1.5;stroke-linecap:round;stroke-linejoin:miter;stroke-miterlimit:4;stroke-dashoffset:0;stroke-opacity:1;display:inline" />
    <path
       d="M 101.32081,167.57313 L 106.68104,163.04553 L 74.86814,162.4299 L 74.93655,162.43956 L 74.93653,166.86926 L 74.93652,166.84973 L 101.32081,167.57313 z"
       id="path4799"
       style="fill:#f67da2;fill-opacity:1;fill-rule:evenodd;stroke:#000000;stroke-width:1.5;stroke-linecap:round;stroke-linejoin:round;stroke-miterlimit:4;stroke-dashoffset:0;stroke-opacity:1;display:inline" />
    <path
       d="M 70.57296,197.56378 C 70.57296,197.56378 80.88388,202.31603 89.83127,208.10552 C 98.77867,213.89501 106.36254,220.62604 106.46503,220.67935 C 108.25507,218.70517 109.2573,217.50666 110.74519,215.19721 C 115.14492,208.36813 84.83602,191.71338 84.97724,191.71991 L 70.57296,197.56378 z"
       id="path4803"
       style="fill:#b89b5c;fill-opacity:1;fill-rule:nonzero;stroke:#000000;stroke-width:1.5;stroke-linecap:round;stroke-linejoin:miter;stroke-miterlimit:4;stroke-dashoffset:0;stroke-opacity:1" />
    <path
       d="M 76.50755,210.32255 C 79.02166,206.55138 77.77264,206.9197 75.84741,205.28172 C 75.84741,205.28172 77.77264,206.9197 75.84476,205.31839 L 56.53057,203.78744 C 56.495,203.6277 55.0098,204.62185 53.14899,205.9075 C 51.28817,207.19316 49.05175,208.77031 49.18281,208.96956 L 76.50755,210.32255 z"
       id="path4807"
       style="fill:#d67df6;fill-opacity:1;fill-rule:evenodd;stroke:#000000;stroke-width:1.5;stroke-linecap:round;stroke-linejoin:miter;stroke-miterlimit:4;stroke-dashoffset:0;stroke-opacity:1;display:inline" />
    <path
       d="M 102.93952,211.53167 L 103.04944,211.53167 C 105.28455,208.49045 103.23265,207.36874 101.5203,206.28703 L 75.84476,205.31839 C 77.77264,206.64904 75.84741,205.14639 75.84741,205.14639 C 77.77264,206.78437 78.87375,206.5228 76.50755,210.32255 L 76.65546,210.35114 L 102.98055,211.48952"
       id="path4813"
       style="fill:#7df6a7;fill-opacity:1;fill-rule:evenodd;stroke:#000000;stroke-width:1.5;stroke-linecap:round;stroke-linejoin:miter;stroke-miterlimit:4;stroke-dashoffset:0;stroke-opacity:1;display:inline" />
    <path
       d="M 83.24909,199.29517 C 84.69003,197.67039 84.16303,195.18004 82.55316,193.94389 C 82.55316,193.94389 84.16303,195.18004 82.32361,193.86896 L 80.42576,193.63063 L 80.43953,193.59491 L 68.74951,198.38069 L 68.7588,198.43546 L 83.24909,199.29517 z"
       id="path4815"
       style="fill:#7d88f6;fill-opacity:1;fill-rule:nonzero;stroke:#000000;stroke-width:1.5;stroke-linecap:round;stroke-linejoin:miter;stroke-miterlimit:4;stroke-dashoffset:0;stroke-opacity:1" />
    <path
       d="M 102.09634,224.0131 L 107.45657,219.4855 L 75.64367,218.86987 L 75.71208,218.87953 L 75.71206,223.30923 L 75.71205,223.2897 L 102.09634,224.0131 z"
       id="path4821"
       style="fill:#f67da2;fill-opacity:1;fill-rule:evenodd;stroke:#000000;stroke-width:1.5;stroke-linecap:round;stroke-linejoin:round;stroke-miterlimit:4;stroke-dashoffset:0;stroke-opacity:1;display:inline" />
    <path
       d="M 59.5505,233.36949 C 51.55308,227.87126 41.80699,217.87201 41.63441,217.72587 C 41.30657,217.90117 38.88558,223.51111 38.25542,226.09156 C 36.15336,234.69928 48.81997,241.54454 48.85706,241.73284 L 59.5505,233.36949 z"
       id="path4909"
       style="fill:#b89b5c;fill-opacity:1;fill-rule:evenodd;stroke:#000000;stroke-width:1.5;stroke-linecap:round;stroke-linejoin:miter;stroke-miterlimit:4;stroke-dashoffset:0;stroke-opacity:1" />
    <path
       d="M 84.83602,191.71338 C 84.83602,191.71338 114.34072,207.91256 110.74519,215.19721 C 108.04615,220.66554 92.22381,229.23968 84.63005,233.92266 L 94.2126,244.05827 C 102.83781,239.21602 109.94602,233.97164 114.17452,229.26865 C 116.31072,225.87144 116.68816,220.27577 114.64727,212.48162 C 114.74567,208.31311 95.10691,198.81285 84.83602,191.71338 z"
       id="path4911"
       style="fill:#f6d07d;fill-opacity:1;fill-rule:nonzero;stroke:#000000;stroke-width:1.5;stroke-linecap:round;stroke-linejoin:miter;stroke-miterlimit:4;stroke-dashoffset:0;stroke-opacity:1;display:inline" />
    <path
       d="M 75.64367,218.86987 L 75.71206,223.30923 L 39.76782,222.81517 L 41.82534,218.06723 L 75.64367,218.86987 z"
       id="path4811"
       style="fill:#7d88f6;fill-opacity:1;fill-rule:evenodd;stroke:#000000;stroke-width:1.5;stroke-linecap:round;stroke-linejoin:miter;stroke-miterlimit:4;stroke-dashoffset:0;stroke-opacity:1;display:inline" />
  </g>
</svg>
